# xmcd
#
# Track frame offsets:
#	183
#	12333
#	30355
#	42105
#	53213
#	62223
#	76990
#	90883
#	101248
#	114173
#	129325
#	137513
#	149495
#	160940
#
# Disc length: 2270
#
# Revision: 2
# Processed by: cddbd v1.5.1PL0 Copyright (c) Steve Scherf et al.
# Submitted via: MusiCat 1.1
# Normalized: r1:TDELIM( - )
#
DISCID=ac08dc0e
DTITLE=Jovem Guarda - O Melhor Da Jovem Guarda - Vol 5
DYEAR=1900
DGENRE=
TTITLE0=Namoradinha de um amigo meu - Roberto Carlos
TTITLE1=Pior pra você, bem pior pra mim - Martinha
TTITLE2=Não te esquecerei (California Dramin') - Renato e seus Blue Caps
TTITLE3=Mágoa (Heartaches) - Golden Boys
TTITLE4=Meu Bem lollipop (My Boy Lollipop - Wanderléa com Renato e Seus Blue Caps
TTITLE5=La Bamba - Prini Lorez
TTITLE6=Eu não sabia que você existia - Leno e Lilian
TTITLE7=A pescaria - Erasmo Carlos
TTITLE8=Sou louca por você - Elizabeth
TTITLE9=Não quero ver você triste - Roberto Carlos
TTITLE10=Gasparzinho - Trio Esperança
TTITLE11=Só a Saudade - Jerry Adriani
TTITLE12=Você fala demais - Os Jovens
TTITLE13=Dona do meu coração (run for your love) - Renato e seus Blue Caps
EXTD=\n\nJovem Guarda - Vários artistas\n
EXTT0=
EXTT1=
EXTT2=
EXTT3=
EXTT4=
EXTT5=
EXTT6=
EXTT7=
EXTT8=
EXTT9=
EXTT10=
EXTT11=
EXTT12=
EXTT13=
PLAYORDER=
